Coordinates
version=1
nRows=26
nColumns=24
inDegrees=yes

Units are S.I. units (second, meters, Newtons, ...)
Angles are in degrees.

endheader
time	pelvis_tilt	pelvis_list	pelvis_rotation	pelvis_tx	pelvis_ty	pelvis_tz	hip_flexion_r	hip_adduction_r	hip_rotation_r	knee_angle_r	ankle_angle_r	subtalar_angle_r	mtp_angle_r	hip_flexion_l	hip_adduction_l	hip_rotation_l	knee_angle_l	ankle_angle_l	subtalar_angle_l	mtp_angle_l	lumbar_extension	lumbar_bending	lumbar_rotation
      4.54000000	      6.74672460	      5.82224779	      0.06729361	     -2.89835099	      1.04449555	      0.15891235	     12.50622099	     -3.83280617	     -8.51341957	     -3.67723084	      4.97408625	    -13.70212804	      0.00000000	    -24.18238717	      8.02543868	      2.13874996	     -5.33724952	      4.87142542	    -21.70552291	      0.00000000	    -23.63349085	     -6.03851646	     -9.06723042
      4.55000000	      7.02470522	      5.75177009	      0.08490917	     -2.88442465	      1.04488193	      0.16103512	     12.06166455	     -3.67327895	     -8.38974706	     -4.48553853	      3.69594530	    -14.92726623	      0.00000000	    -24.21762664	      7.70159757	      1.32169802	     -7.16243101	      4.68295839	    -20.37827955	      0.00000000	    -23.68243623	     -6.03330065	     -9.03507432
      4.56000000	      7.11922311	      5.65249979	      0.02913447	     -2.87038482	      1.04523875	      0.16333541	     11.86957653	     -3.48517184	     -8.22258205	     -5.57168229	      2.40189460	    -16.08803954	      0.00000000	    -23.88842007	      7.35309089	      0.19546185	     -9.26692085	      4.37290099	    -18.95005324	      0.00000000	    -23.48314094	     -6.03655803	     -8.88950070
      4.57000000	      7.20321074	      5.47751770	     -0.09778364	     -2.85631257	      1.04579534	      0.16579627	     11.70622143	     -3.22073107	     -8.03674836	     -6.80116453	      1.28927938	    -17.07931233	      0.00000000	    -23.38304112	      6.91640966	     -1.17155997	    -11.63808480	      3.84234980	    -17.57448061	      0.00000000	    -23.26276107	     -5.98555008	     -8.66497592
      4.58000000	      7.26218632	      5.24045938	     -0.29564782	     -2.84226634	      1.04654542	      0.16836939	     11.57348143	     -2.89664527	     -7.87585902	     -8.08608676	      0.44332858	    -17.91997106	      0.00000000	    -22.69837501	      6.40618865	     -2.63520574	    -14.25599281	      2.98310009	    -16.38407112	      0.00000000	    -23.01024350	     -5.88943975	     -8.32995538
      4.59000000	      7.30694699	      4.90624238	     -0.56493373	     -2.82830452	      1.04748350	      0.17102845	     11.41678438	     -2.46675092	     -7.67537551	     -9.31442254	      0.02149619	    -18.48713025	      0.00000000	    -21.84371773	      5.78744138	     -4.14546732	    -17.11542000	      1.70546061	    -15.64574111	      0.00000000	    -22.75311101	     -5.69911551	     -7.96522374
      4.60000000	      7.33609919	      4.52439474	     -0.91084701	     -2.81446126	      1.04857883	      0.17372371	     11.23337505	     -1.98919904	     -7.51819999	    -10.45827208	      0.18364457	    -18.67029801	      0.00000000	    -20.84933446	      5.13293311	     -5.51448021	    -20.14806425	     -0.12588671	    -15.48254341	      0.00000000	    -22.48937949	     -5.46823610	     -7.51424570
      4.61000000	      7.32839295	      4.08942300	     -1.28245389	     -2.80077706	      1.04976550	      0.17640079	     10.99937623	     -1.45497440	     -7.39084804	    -11.43393487	      0.65903935	    -18.65745393	      0.00000000	    -19.67040176	      4.41120178	     -6.74854502	    -23.38235314	     -2.29538097	    -15.69987326	      0.00000000	    -22.20992153	     -5.17331693	     -7.05071662
      4.62000000	      7.31767696	      3.61126221	     -1.62162923	     -2.78728155	      1.05104183	      0.17892222	     10.67216017	     -0.90850653	     -7.54296173	    -12.24217499	      1.61969746	    -18.07749382	      0.00000000	    -18.36509622	      3.65103942	     -7.64922244	    -26.74722450	     -4.91824264	    -16.54954162	      0.00000000	    -21.96952381	     -4.79764064	     -6.61563143
      4.63000000	      7.24323903	      3.09639027	     -1.89666099	     -2.77398691	      1.05225425	      0.18130407	     10.27455410	     -0.31890743	     -7.69773759	    -12.80735828	      2.61238126	    -17.54873765	      0.00000000	    -16.85896065	      2.84938429	     -8.23747173	    -30.23736960	     -7.76701081	    -17.74939353	      0.00000000	    -21.70392556	     -4.34766557	     -6.21832863
      4.64000000	      7.06214660	      2.57440887	     -2.11664704	     -2.76092398	      1.05328307	      0.18357111	      9.85971543	      0.30044497	     -7.76262007	    -13.13422623	      3.56883613	    -17.12338900	      0.00000000	    -15.11230342	      2.04915615	     -8.53938495	    -33.80395745	    -10.73034446	    -19.18876565	      0.00000000	    -21.36994617	     -3.86603517	     -5.84555222
      4.65000000	      6.89946975	      2.00104652	     -2.18256289	     -2.74809597	      1.05425931	      0.18555971	      9.32301929	      0.93355086	     -8.19272748	    -13.28534206	      4.75383662	    -16.24124549	      0.00000000	    -13.27271371	      1.20156483	     -8.48737279	    -37.38435124	    -13.69582321	    -20.78340090	      0.00000000	    -21.13182641	     -3.26945106	     -5.56944235
      4.66000000	      6.59692950	      1.43027341	     -2.15015591	     -2.73552593	      1.05493410	      0.18741640	      8.82686701	      1.60605176	     -8.44730604	    -13.21396450	      5.61317168	    -15.80947274	      0.00000000	    -11.17663760	      0.37637103	     -8.17845353	    -40.93754685	    -16.52192927	    -22.37514997	      0.00000000	    -20.79421775	     -2.65284976	     -5.31841763
      4.67000000	      6.22100932	      0.86234452	     -1.99358834	     -2.72322022	      1.05538533	      0.18910599	      8.33449853	      2.29572293	     -8.68344356	    -12.97237597	      6.20606712	    -15.65658229	      0.00000000	     -8.91468702	     -0.41837336	     -7.62621313	    -44.39586810	    -19.02045416	    -23.80803177	      0.00000000	    -20.43436240	     -2.01378468	     -5.11607478
      4.68000000	      5.89002895	      0.32051617	     -1.75730150	     -2.71114124	      1.05577655	      0.19066297	      7.74098248	      2.97441998	     -8.87317874	    -12.60039486	      6.79917296	    -15.49249671	      0.00000000	     -6.66757824	     -1.11470348	     -6.86804706	    -47.63590575	    -21.07763876	    -25.18838306	      0.00000000	    -20.17893221	     -1.39453021	     -4.95282165
      4.69000000	      5.59715124	     -0.17290811	     -1.46855220	     -2.69930321	      1.05611390	      0.19214712	      7.10222624	      3.61410489	     -9.06212582	    -12.17217037	      7.25729816	    -15.51563563	      0.00000000	     -4.44161955	     -1.69969179	     -6.00634653	    -50.62487094	    -22.43900915	    -26.32231936	      0.00000000	    -20.01469019	     -0.83772792	     -4.75645870
      4.70000000	      5.36933526	     -0.57046678	     -1.16411077	     -2.68765353	      1.05648795	      0.19360137	      6.38518441	      4.17438783	     -9.12237674	    -11.68923359	      7.65032301	    -15.64141831	      0.00000000	     -2.30896521	     -2.10199850	     -5.07232858	    -53.28254050	    -23.00344600	    -27.32660443	      0.00000000	    -19.95214526	     -0.40647249	     -4.56833509
      4.71000000	      5.20882333	     -0.85071396	     -0.87619336	     -2.67616557	      1.05694904	      0.19506685	      5.60288327	      4.62615797	     -9.08130052	    -11.18547625	      7.95559428	    -15.85468341	      0.00000000	     -0.29724652	     -2.30629991	     -4.13390146	    -55.57319041	    -22.71059717	    -28.20373542	      0.00000000	    -19.98439446	     -0.13332757	     -4.35925108
      4.72000000	      5.11177902	     -1.00994535	     -0.61907564	     -2.66482401	      1.05752145	      0.19655458	      4.77355971	      4.95518032	     -9.00888330	    -10.69290595	      8.19972157	    -16.14625894	      0.00000000	      1.58406442	     -2.32105334	     -3.23135944	    -57.48465871	    -21.59112604	    -28.95198084	      0.00000000	    -20.10283167	     -0.02133043	     -4.09634015
      4.73000000	      5.05517466	     -1.04784124	     -0.40246337	     -2.65358137	      1.05820720	      0.19808627	      3.90420739	      5.16429335	     -8.86865327	    -10.19039988	      8.40356173	    -16.46858132	      0.00000000	      3.34682178	     -2.16320371	     -2.39597266	    -59.00975652	    -19.76116459	    -29.56713588	      0.00000000	    -20.26735342	     -0.07011870	     -3.81720632
      4.74000000	      5.02508886	     -0.96730821	     -0.23534565	     -2.64242770	      1.05899356	      0.19965804	      3.00880767	      5.25108562	     -8.69214927	     -9.68044492	      8.59831363	    -16.79314655	      0.00000000	      5.00001133	     -1.84890596	     -1.64821576	    -60.15106543	    -17.43403684	    -30.08301693	      0.00000000	    -20.46173149	     -0.27175742	     -3.52592001
      4.75000000	      5.01069081	     -0.78874432	     -0.13317768	     -2.63134026	      1.05984951	      0.20129311	      2.08308550	      5.24248391	     -8.41659581	     -9.13586897	      8.73173620	    -17.23591704	      0.00000000	      6.54907809	     -1.41849210	     -1.01568971	    -60.91801140	    -14.87581195	    -30.55709212	      0.00000000	    -20.66697721	     -0.60751116	     -3.19866468
      4.76000000	      4.93068967	     -0.55973094	     -0.05004093	     -2.62032093	      1.06065107	      0.20289347	      1.24132023	      5.16104234	     -8.33406067	     -8.60481536	      8.93665332	    -17.39339691	      0.00000000	      8.09758707	     -0.92341111	     -0.44503468	    -61.35249827	    -12.30073900	    -31.02250042	      0.00000000	    -20.78741624	     -0.99713068	     -2.89490350
      4.77000000	      4.82984961	     -0.28703621	     -0.00963237	     -2.60933284	      1.06142112	      0.20451160	      0.40540552	      5.03113571	     -8.29027608	     -8.03201754	      9.10687845	    -17.53310256	      0.00000000	      9.58421788	     -0.38891271	      0.02883356	    -61.45597825	     -9.85111086	    -31.43641700	      0.00000000	    -20.86898453	     -1.44575544	     -2.58413563
      4.78000000	      4.69594530	     -0.01171969	      0.01086025	     -2.59840281	      1.06209235	      0.20610510	     -0.40468325	      4.89635696	     -8.27252927	     -7.43031732	      9.27134868	    -17.64634536	      0.00000000	     11.03249933	      0.14490632	      0.44996315	    -61.26475199	     -7.62394572	    -31.78387091	      0.00000000	    -20.90822374	     -1.89345239	     -2.28127580
      4.79000000	      4.53690482	      0.25257395	      0.00981217	     -2.58750621	      1.06265078	      0.20767924	     -1.19771762	      4.77039059	     -8.29466856	     -6.80057015	      9.40199217	    -17.71585134	      0.00000000	     12.42717717	      0.65681347	      0.82030373	    -60.78707754	     -5.65729825	    -32.03027950	      0.00000000	    -20.90992024	     -2.32995878	     -1.98486695
